<?xml version="1.0" encoding="UTF-8"?>
<svg width="8px" height="20px" viewBox="0 0 8 20" version="1.1" xmlns="http://www.w3.org/2000/svg" xmlns:xlink="http://www.w3.org/1999/xlink">
    <!-- Generator: Sketch 49.3 (51167) - http://www.bohemiancoding.com/sketch -->
    <title>form/select-arrows</title>
    <desc>Created with Sketch.</desc>
    <defs></defs>
    <g id="03-Form-Apply-for-Fund" stroke="none" stroke-width="1" fill="none" fill-rule="evenodd">
        <g id="D02-Form-Styles---01-Default" transform="translate(-1023.000000, -1998.000000)" fill="#003938">
            <g id="Group-2" transform="translate(392.000000, 1980.000000)">
                <g id="form/select-arrows" transform="translate(631.000000, 17.000000)">
                    <g id="Group">
                        <path d="M4.91381155,2.05607598 L7.37504957,7.59386153 C7.59935365,8.09854572 7.37206067,8.68950747 6.86737649,8.91381155 C6.73951749,8.97063777 6.60115637,9 6.46123802,9 L1.53876198,9 C0.986477228,9 0.538761978,8.55228475 0.538761978,8 C0.538761978,7.86008166 0.568124208,7.72172053 0.624950429,7.59386153 L3.08618845,2.05607598 C3.31049253,1.5513918 3.90145428,1.32409882 4.40613847,1.5484029 C4.63237098,1.64895069 4.81326376,1.82984347 4.91381155,2.05607598 Z" id="Rectangle-4"></path>
                        <path d="M4.91381155,15.056076 L7.37504957,20.5938615 C7.59935365,21.0985457 7.37206067,21.6895075 6.86737649,21.9138115 C6.73951749,21.9706378 6.60115637,22 6.46123802,22 L1.53876198,22 C0.986477228,22 0.538761978,21.5522847 0.538761978,21 C0.538761978,20.8600817 0.568124208,20.7217205 0.624950429,20.5938615 L3.08618845,15.056076 C3.31049253,14.5513918 3.90145428,14.3240988 4.40613847,14.5484029 C4.63237098,14.6489507 4.81326376,14.8298435 4.91381155,15.056076 Z" id="Rectangle-4" transform="translate(4.000000, 17.500000) scale(1, -1) translate(-4.000000, -17.500000) "></path>
                    </g>
                </g>
            </g>
        </g>
    </g>
</svg>