<?xml version="1.0" encoding="UTF-8"?>
<svg width="34px" height="36px" viewBox="0 0 34 36" version="1.1" xmlns="http://www.w3.org/2000/svg" xmlns:xlink="http://www.w3.org/1999/xlink">
    <!-- Generator: Sketch 49.3 (51167) - http://www.bohemiancoding.com/sketch -->
    <title>piggy-bank</title>
    <desc>Created with Sketch.</desc>
    <defs></defs>
    <g id="03-Form-Apply-for-Fund" stroke="none" stroke-width="1" fill="none" fill-rule="evenodd">
        <g id="D02-Form-Styles---01-Default" transform="translate(-392.000000, -102.000000)" fill="#00BCBC" fill-rule="nonzero">
            <g id="piggy-bank" transform="translate(392.000000, 102.000000)">
                <path d="M30.8175579,17.7465234 C30.1102314,16.0412344 28.9698264,14.5139063 27.5114091,13.2625547 L27.1338967,8.71980469 L23.2433554,10.7569688 C21.5361901,10.1145938 19.6513678,9.75817969 17.6700248,9.75817969 C11.1130826,9.75817969 5.61280992,13.6598203 4.11322727,18.9198281 C3.76852066,18.7772344 3.39121901,18.6979922 2.99565289,18.6979922 C1.3771405,18.6979922 0.0604132231,20.0159297 0.0604132231,21.6359297 L0.0604132231,24.3000703 L2.99565289,24.3000703 L2.99565289,22.1906953 L2.16785124,22.1906953 L2.16785124,21.6359297 C2.16785124,21.1790391 2.53918182,20.8073672 2.99565289,20.8073672 C3.31008264,20.8073672 3.58404959,20.9837813 3.72412397,21.2429531 C3.71407851,21.4304766 3.70831818,21.6190547 3.70831818,21.8087578 C3.70831818,25.5191484 5.65172727,28.8373359 8.70730165,31.0478906 L9.32323554,36 L13.8476942,36 L14.2912397,33.5032734 C15.3731983,33.735375 16.5047521,33.8594063 17.6699545,33.8594063 C18.732314,33.8594063 19.7667149,33.7566094 20.7610744,33.5626172 L21.0642645,36 L25.5887231,36 L26.4447645,31.181625 C28.416905,29.8042031 29.9458512,27.9726328 30.8175579,25.8710625 L33.9395868,25.0167656 L33.9395868,18.6008203 L30.8175579,17.7465234 Z M12.8175083,16.9432031 L12.8175083,14.8338281 L20.3256777,14.8338281 L20.3256777,16.9432031 L12.8175083,16.9432031 Z M24.8329959,20.0046797 C24.251062,20.0046797 23.7792769,19.5324609 23.7792769,18.9499922 C23.7792769,18.3675234 24.251062,17.8953047 24.8329959,17.8953047 C25.4149298,17.8953047 25.8867149,18.3675234 25.8867149,18.9499922 C25.8867149,19.5324609 25.415,20.0046797 24.8329959,20.0046797 Z" id="Shape"></path>
                <ellipse id="Oval" cx="16.5714876" cy="3.77852344" rx="3.77505372" ry="3.77852344"></ellipse>
            </g>
        </g>
    </g>
</svg>