<?xml version="1.0" encoding="UTF-8"?>
<svg width="288px" height="103px" viewBox="0 0 288 103" version="1.1" xmlns="http://www.w3.org/2000/svg" xmlns:xlink="http://www.w3.org/1999/xlink">
    <!-- Generator: Sketch 50 (54983) - http://www.bohemiancoding.com/sketch -->
    <title>Foodies Foundation Logo H Copy</title>
    <desc>Created with Sketch.</desc>
    <defs></defs>
    <g id="Page-1" stroke="none" stroke-width="1" fill="none" fill-rule="evenodd">
        <g id="Foodies-Foundation-Logo-H-Copy">
            <path d="M4.90196078e-05,50.0001961 C4.90196078e-05,22.3860222 22.3858752,0.000196078431 50.000049,0.000196078431 C77.6142229,0.000196078431 100.000049,22.3860222 100.000049,50.0001961 C100.000049,77.6143699 77.6142229,100.000196 50.000049,100.000196 C22.3858752,100.000196 4.90196078e-05,77.6143699 4.90196078e-05,50.0001961" id="Fill-1" fill="#74D2D2"></path>
            <path d="M50.0002941,31.8381373 C50.0002941,31.8381373 55.2159804,22.9920588 64.8380392,22.9920588 C74.4596078,22.9920588 82.4630392,30.4557843 82.4630392,42.0562745 C82.4630392,55.4234314 69.3953922,67.942549 50.6630392,83.37 C50.2797059,83.6856863 49.7208824,83.6856863 49.3370588,83.37 C30.6047059,67.942549 17.5370588,55.4234314 17.5370588,42.0562745 C17.5370588,30.4557843 25.5409804,22.9920588 35.162549,22.9920588 C44.7846078,22.9920588 50.0002941,31.8381373 50.0002941,31.8381373" id="Fill-3" fill="#DF2027"></path>
            <polygon id="Fill-5" fill="#2EC4C4" points="117.258824 99.7857843 119.615686 99.7857843 119.615686 89.4480392 117.258824 89.4480392"></polygon>
            <path d="M121.03348,92.2239216 L123.129559,92.2239216 L123.129559,93.4239216 C123.505539,92.6719608 124.330049,92.0503922 125.587892,92.0503922 C127.076618,92.0503922 128.13201,92.9469608 128.13201,94.9709804 L128.13201,99.7856863 L126.035931,99.7856863 L126.035931,95.274902 C126.035931,94.2479412 125.631029,93.7562745 124.705539,93.7562745 C123.808971,93.7562745 123.129559,94.3057843 123.129559,95.4195098 L123.129559,99.7856863 L121.03348,99.7856863 L121.03348,92.2239216 Z" id="Fill-7" fill="#2EC4C4"></path>
            <path d="M132.616667,99.7857843 L134.698529,99.7857843 L134.698529,92.2240196 L132.616667,92.2240196 L132.616667,99.7857843 Z M132.457353,90.054902 C132.457353,89.4044118 132.978431,88.9127451 133.643137,88.9127451 C134.323039,88.9127451 134.843137,89.4044118 134.843137,90.054902 C134.843137,90.7053922 134.323039,91.1970588 133.643137,91.1970588 C132.978431,91.1970588 132.457353,90.7053922 132.457353,90.054902 Z" id="Fill-8" fill="#2EC4C4"></path>
            <path d="M136.423922,97.5447549 L136.423922,93.7133824 L135.455294,93.7133824 L135.455294,92.2241667 L136.423922,92.2241667 L136.423922,90.5898529 L138.506275,90.5898529 L138.506275,92.2241667 L140.096471,92.2241667 L140.096471,93.7133824 L138.506275,93.7133824 L138.506275,97.3565196 C138.506275,97.9633824 138.809706,98.252598 139.345,98.252598 C139.662647,98.252598 139.89402,98.2094608 140.139608,98.1079902 L140.139608,99.727598 C139.850392,99.8290686 139.431275,99.930049 138.867549,99.930049 C137.276863,99.930049 136.423922,99.1207353 136.423922,97.5447549" id="Fill-9" fill="#2EC4C4"></path>
            <path d="M144.507843,97.5447549 L144.507843,93.7133824 L143.539216,93.7133824 L143.539216,92.2241667 L144.507843,92.2241667 L144.507843,90.5898529 L146.589706,90.5898529 L146.589706,92.2241667 L148.179902,92.2241667 L148.179902,93.7133824 L146.589706,93.7133824 L146.589706,97.3565196 C146.589706,97.9633824 146.893137,98.252598 147.428431,98.252598 C147.746078,98.252598 147.977941,98.2094608 148.223529,98.1079902 L148.223529,99.727598 C147.934314,99.8290686 147.515196,99.930049 146.951471,99.930049 C145.360784,99.930049 144.507843,99.1207353 144.507843,97.5447549" id="Fill-10" fill="#2EC4C4"></path>
            <path d="M154.438627,96.0554902 L154.438627,95.9540196 C154.438627,94.5084314 153.759216,93.6407843 152.588137,93.6407843 C151.431275,93.6407843 150.737157,94.4790196 150.737157,95.925098 L150.737157,96.0407843 C150.737157,97.4868627 151.402843,98.3540196 152.588137,98.3540196 C153.759216,98.3540196 154.438627,97.4868627 154.438627,96.0554902 M148.597451,96.0844118 L148.597451,95.9682353 C148.597451,93.5971569 150.318039,92.050098 152.588137,92.050098 C154.857745,92.050098 156.564118,93.5687255 156.564118,95.925098 L156.564118,96.0407843 C156.564118,98.4265686 154.843529,99.9447059 152.573431,99.9447059 C150.318039,99.9447059 148.597451,98.4407843 148.597451,96.0844118" id="Fill-11" fill="#2EC4C4"></path>
            <path d="M162.928971,95.8094608 L162.928971,95.7084804 C162.928971,94.4217157 162.249069,93.6408333 161.106912,93.6408333 C159.936324,93.6408333 159.285343,94.4790686 159.285343,95.7226961 L159.285343,95.8388725 C159.285343,97.0962255 160.023088,97.8771078 161.063775,97.8771078 C162.163284,97.8771078 162.928971,97.0962255 162.928971,95.8094608 M157.20348,99.9447549 L159.285343,99.9447549 C159.415735,100.609951 159.893186,101.043775 160.962304,101.043775 C162.234853,101.043775 162.871618,100.378088 162.871618,99.1927941 L162.871618,98.0506373 C162.45201,98.7878922 161.555441,99.4530882 160.442696,99.4530882 C158.606422,99.4530882 157.145637,98.0795588 157.145637,95.8388725 L157.145637,95.737402 C157.145637,93.5687745 158.591716,92.0501471 160.471127,92.0501471 C161.700049,92.0501471 162.437794,92.5854412 162.871618,93.3516176 L162.871618,92.2241667 L164.95299,92.2241667 L164.95299,99.1927941 C164.938775,101.433971 163.449559,102.576127 160.962304,102.576127 C158.519167,102.576127 157.405441,101.506029 157.20348,99.9447549" id="Fill-12" fill="#2EC4C4"></path>
            <path d="M171.288186,95.187598 C171.215637,94.0454412 170.637206,93.4964216 169.639657,93.4964216 C168.699951,93.4964216 168.063676,94.1175 167.904853,95.187598 L171.288186,95.187598 Z M165.750441,96.0983824 L165.750441,95.9831863 C165.750441,93.597402 167.442108,92.0503431 169.639657,92.0503431 C171.591618,92.0503431 173.326422,93.1925 173.326422,95.8959314 L173.326422,96.4743627 L167.875931,96.4743627 C167.933284,97.7322059 168.613186,98.4552451 169.755343,98.4552451 C170.724461,98.4552451 171.200931,98.0361275 171.331324,97.3998529 L173.312206,97.3998529 C173.066127,99.0336765 171.765147,99.9444608 169.6975,99.9444608 C167.413186,99.9444608 165.750441,98.5130882 165.750441,96.0983824 Z" id="Fill-13" fill="#2EC4C4"></path>
            <path d="M174.565882,97.5447549 L174.565882,93.7133824 L173.597255,93.7133824 L173.597255,92.2241667 L174.565882,92.2241667 L174.565882,90.5898529 L176.647745,90.5898529 L176.647745,92.2241667 L178.237941,92.2241667 L178.237941,93.7133824 L176.647745,93.7133824 L176.647745,97.3565196 C176.647745,97.9633824 176.951176,98.252598 177.486471,98.252598 C177.804118,98.252598 178.03598,98.2094608 178.281569,98.1079902 L178.281569,99.727598 C177.992353,99.8290686 177.573235,99.930049 177.00951,99.930049 C175.418824,99.930049 174.565882,99.1207353 174.565882,97.5447549" id="Fill-14" fill="#2EC4C4"></path>
            <path d="M179.048971,88.7973529 L181.145539,88.7973529 L181.145539,93.4238235 C181.521029,92.6718627 182.345539,92.0502941 183.603382,92.0502941 C185.092598,92.0502941 186.14799,92.9468627 186.14799,94.9708824 L186.14799,99.7855882 L184.051422,99.7855882 L184.051422,95.2748039 C184.051422,94.2478431 183.64652,93.7561765 182.72152,93.7561765 C181.824951,93.7561765 181.145539,94.3056863 181.145539,95.4194118 L181.145539,99.7855882 L179.048971,99.7855882 L179.048971,88.7973529 Z" id="Fill-15" fill="#2EC4C4"></path>
            <path d="M192.425,95.187598 C192.352451,94.0454412 191.77402,93.4964216 190.776471,93.4964216 C189.836765,93.4964216 189.20049,94.1175 189.041667,95.187598 L192.425,95.187598 Z M186.887255,96.0983824 L186.887255,95.9831863 C186.887255,93.597402 188.578922,92.0503431 190.776471,92.0503431 C192.728431,92.0503431 194.463235,93.1925 194.463235,95.8959314 L194.463235,96.4743627 L189.012745,96.4743627 C189.070098,97.7322059 189.75,98.4552451 190.892157,98.4552451 C191.861275,98.4552451 192.337745,98.0361275 192.468137,97.3998529 L194.44902,97.3998529 C194.202941,99.0336765 192.901961,99.9444608 190.834314,99.9444608 C188.55,99.9444608 186.887255,98.5130882 186.887255,96.0983824 Z" id="Fill-16" fill="#2EC4C4"></path>
            <path d="M195.289118,92.2239216 L197.385196,92.2239216 L197.385196,93.6695098 C197.862647,92.6577451 198.600392,92.122451 199.829314,92.1082353 L199.829314,94.0601961 C198.281765,94.0454902 197.385196,94.5513725 197.385196,95.997451 L197.385196,99.7856863 L195.289118,99.7856863 L195.289118,92.2239216 Z" id="Fill-17" fill="#2EC4C4"></path>
            <path d="M203.767941,39.8837745 L212.558627,39.8837745 C212.167941,37.9303431 210.605196,36.367598 208.261078,36.367598 C205.916471,36.367598 204.353725,37.9303431 203.767941,39.8837745 Z M203.767941,43.5955392 C204.158627,45.5494608 205.916471,47.3077941 208.846863,47.3077941 C212.167941,47.3077941 213.926275,44.9626961 213.926275,44.9626961 L216.661569,48.4793627 C216.661569,48.4793627 213.731176,51.8009314 208.456176,51.8009314 C202.79098,51.8009314 198.457647,47.3077941 198.457647,41.8372059 C198.457647,36.367598 202.79098,31.8744608 208.261078,31.8744608 C213.731176,31.8744608 217.833627,35.9764216 217.833627,41.4465196 C217.833627,42.8146569 217.638039,43.5955392 217.638039,43.5955392 L203.767941,43.5955392 Z" id="Fill-18" fill="#003938"></path>
            <path d="M160.826029,81.1686765 C160.826029,81.1686765 158.905441,83.4735784 155.448578,83.4735784 C151.224069,83.4735784 148.15152,80.4010294 148.15152,75.522598 L148.15152,64.2686765 L153.336814,64.2686765 L153.336814,75.0235784 C153.336814,77.1358333 154.872598,78.6721078 156.985343,78.6721078 C159.289755,78.6721078 160.826029,77.1358333 160.826029,74.254951 L160.826029,64.2686765 L166.011324,64.2686765 L166.011324,83.0892647 L160.826029,83.0892647 L160.826029,81.1686765 Z" id="Fill-19" fill="#003938"></path>
            <path d="M173.221667,66.5738725 C173.221667,66.5738725 175.142255,63.8856373 178.599118,63.8856373 C182.824118,63.8856373 185.896176,66.9576961 185.896176,72.1425 L185.896176,83.0890686 L180.711373,83.0890686 L180.711373,72.7194608 C180.711373,70.4140686 179.175098,68.8782843 177.062843,68.8782843 C174.757941,68.8782843 173.221667,70.4140686 173.221667,73.294951 L173.221667,83.0890686 L168.036863,83.0890686 L168.036863,64.2689706 L173.221667,64.2689706 L173.221667,66.5738725 Z" id="Fill-20" fill="#003938"></path>
            <path d="M274.818627,66.5738725 C274.818627,66.5738725 276.739216,63.8856373 280.196078,63.8856373 C284.421078,63.8856373 287.493137,66.9576961 287.493137,72.1425 L287.493137,83.0890686 L282.308333,83.0890686 L282.308333,72.7194608 C282.308333,70.4140686 280.772059,68.8782843 278.659314,68.8782843 C276.354902,68.8782843 274.818627,70.4140686 274.818627,73.294951 L274.818627,83.0890686 L269.633824,83.0890686 L269.633824,64.2689706 L274.818627,64.2689706 L274.818627,66.5738725 Z" id="Fill-21" fill="#003938"></path>
            <path d="M220.406373,75.010098 L220.406373,74.4321569 L216.168137,75.2032353 C214.820098,75.4341176 214.04902,76.1659804 214.04902,77.3223529 C214.04902,78.4777451 214.820098,79.2483333 216.553922,79.2483333 C218.865196,79.2483333 220.406373,77.7071569 220.406373,75.010098 Z M220.406373,81.1748039 C220.406373,81.1748039 218.479902,83.4870588 215.205392,83.4870588 C211.351961,83.4870588 209.058333,80.9821569 209.058333,78.0929412 C209.058333,75.010098 210.966667,72.8522549 214.434314,72.2360784 L220.406373,71.1576471 C220.406373,69.6159804 219.25098,68.4605882 217.131373,68.4605882 C214.241667,68.4605882 212.893137,70.3860784 212.893137,70.3860784 L210.003431,67.4973529 C210.003431,67.4973529 212.507843,63.8365686 217.516667,63.8365686 C222.333333,63.8365686 225.607843,67.1115686 225.607843,71.3498039 L225.607843,83.1017647 L220.406373,83.1017647 L220.406373,81.1748039 Z" id="Fill-22" fill="#003938"></path>
            <path d="M230.630637,58.5535784 L235.36348,58.5535784 L235.36348,64.2717157 L239.307598,64.2717157 L239.307598,69.0045588 L235.36348,69.0045588 L235.36348,76.6138725 C235.36348,77.7972059 236.349755,78.7834804 237.730147,78.7834804 C238.91299,78.7834804 239.702206,78.3883824 239.702206,78.3883824 L239.702206,82.9241667 C239.702206,82.9241667 238.124265,83.5163235 236.152696,83.5163235 C232.208578,83.5163235 230.039461,81.3467157 230.039461,76.8109314 L230.039461,69.0045588 L226.68652,69.0045588 L226.68652,64.2717157 L228.46152,64.2717157 C229.644853,64.2717157 230.630637,63.2854412 230.630637,61.7084804 L230.630637,58.5535784 Z" id="Fill-23" fill="#003938"></path>
            <path d="M178.792402,47.1022059 C175.88652,47.1022059 173.531127,44.7463235 173.531127,41.8404412 C173.531127,38.9345588 175.88652,36.5786765 178.792402,36.5786765 C181.698775,36.5786765 184.054167,38.9345588 184.054167,41.8404412 C184.054167,44.7463235 181.698775,47.1022059 178.792402,47.1022059 Z M184.056618,23.589951 L184.056618,33.4865196 C182.532598,32.5242647 180.728186,31.964951 178.792402,31.964951 C173.33848,31.964951 168.916912,36.3865196 168.916912,41.8404412 C168.916912,47.2943627 173.33848,51.7159314 178.792402,51.7159314 C180.728186,51.7159314 182.532598,51.1566176 184.056618,50.1943627 L184.056618,51.2232843 L189.052696,51.2232843 L189.052696,23.589951 L184.056618,23.589951 Z" id="Fill-24" fill="#003938"></path>
            <path d="M157.327157,47.1076961 C154.420784,47.1076961 152.065392,44.7518137 152.065392,41.8459314 C152.065392,38.940049 154.420784,36.5841667 157.327157,36.5841667 C160.233039,36.5841667 162.588431,38.940049 162.588431,41.8459314 C162.588431,44.7518137 160.233039,47.1076961 157.327157,47.1076961 M157.556569,31.8925 C152.05902,31.8925 147.602157,36.3493627 147.602157,41.8469118 C147.602157,47.3439706 152.05902,51.8008333 157.556569,51.8008333 C163.054118,51.8008333 167.51049,47.3439706 167.51049,41.8469118 C167.51049,36.3493627 163.054118,31.8925 157.556569,31.8925" id="Fill-25" fill="#003938"></path>
            <path d="M136.790637,47.1076961 C133.884755,47.1076961 131.528873,44.7518137 131.528873,41.8459314 C131.528873,38.940049 133.884755,36.5841667 136.790637,36.5841667 C139.69701,36.5841667 142.052402,38.940049 142.052402,41.8459314 C142.052402,44.7518137 139.69701,47.1076961 136.790637,47.1076961 M136.790637,31.8925 C131.293088,31.8925 126.836225,36.3493627 126.836225,41.8469118 C126.836225,47.3439706 131.293088,51.8008333 136.790637,51.8008333 C142.288186,51.8008333 146.745049,47.3439706 146.745049,41.8469118 C146.745049,36.3493627 142.288186,31.8925 136.790637,31.8925" id="Fill-26" fill="#003938"></path>
            <path d="M128.589902,25.8353922 C128.589902,27.2662745 127.430098,28.4260784 125.999216,28.4260784 C124.568333,28.4260784 123.40902,27.2662745 123.40902,25.8353922 C123.40902,24.4045098 124.568333,23.2447059 125.999216,23.2447059 C127.430098,23.2447059 128.589902,24.4045098 128.589902,25.8353922" id="Fill-27" fill="#003938"></path>
            <polygon id="Fill-28" fill="#003938" points="191.316667 51.2004902 196.641667 51.2004902 196.641667 32.3901961 191.316667 32.3901961"></polygon>
            <polygon id="Fill-29" fill="#003938" points="241.771078 83.1210784 247.095588 83.1210784 247.095588 64.2715686 241.771078 64.2715686"></polygon>
            <path d="M122.375784,32.390098 L126.720392,32.390098 L126.720392,36.7523529 L122.36598,36.7523529 L122.36598,51.2170588 L117.268431,51.2170588 L117.268431,36.7523529 L114.207647,36.7523529 L114.207647,32.390098 L117.268431,32.390098 L117.268431,28.1621569 L117.278235,28.1621569 C117.379216,25.4302941 119.619412,23.2445098 122.375784,23.2445098 L122.375784,32.390098 Z" id="Fill-30" fill="#003938"></path>
            <path d="M197.212549,78.9838725 C194.306176,78.9838725 191.950784,76.6279902 191.950784,73.722598 C191.950784,70.8162255 194.306176,68.4603431 197.212549,68.4603431 C200.118431,68.4603431 202.473824,70.8162255 202.473824,73.722598 C202.473824,76.6279902 200.118431,78.9838725 197.212549,78.9838725 Z M202.476275,55.4721078 L202.476275,65.3686765 C200.952255,64.4059314 199.147843,63.8466176 197.212549,63.8466176 C191.758137,63.8466176 187.337059,68.2686765 187.337059,73.722598 C187.337059,79.1765196 191.758137,83.597598 197.212549,83.597598 C199.147843,83.597598 200.952255,83.0382843 202.476275,82.0760294 L202.476275,83.104951 L207.472843,83.104951 L207.472843,55.4721078 L202.476275,55.4721078 Z" id="Fill-31" fill="#003938"></path>
            <path d="M136.790637,78.9896078 C133.884755,78.9896078 131.528873,76.6337255 131.528873,73.7278431 C131.528873,70.8219608 133.884755,68.4660784 136.790637,68.4660784 C139.69701,68.4660784 142.052402,70.8219608 142.052402,73.7278431 C142.052402,76.6337255 139.69701,78.9896078 136.790637,78.9896078 M136.790637,63.7744118 C131.293088,63.7744118 126.836225,68.2312745 126.836225,73.7288235 C126.836225,79.2258824 131.293088,83.6827451 136.790637,83.6827451 C142.288186,83.6827451 146.745049,79.2258824 146.745049,73.7288235 C146.745049,68.2312745 142.288186,63.7744118 136.790637,63.7744118" id="Fill-32" fill="#003938"></path>
            <path d="M258.46598,78.9896078 C255.559608,78.9896078 253.204216,76.6337255 253.204216,73.7278431 C253.204216,70.8219608 255.559608,68.4660784 258.46598,68.4660784 C261.372353,68.4660784 263.727745,70.8219608 263.727745,73.7278431 C263.727745,76.6337255 261.372353,78.9896078 258.46598,78.9896078 M258.46598,63.7744118 C252.968431,63.7744118 248.511569,68.2312745 248.511569,73.7288235 C248.511569,79.2258824 252.968431,83.6827451 258.46598,83.6827451 C263.963529,83.6827451 268.420392,79.2258824 268.420392,73.7288235 C268.420392,68.2312745 263.963529,63.7744118 258.46598,63.7744118" id="Fill-33" fill="#003938"></path>
            <path d="M128.589902,57.7173039 C128.589902,59.1476961 127.430098,60.3079902 125.999216,60.3079902 C124.568333,60.3079902 123.40902,59.1476961 123.40902,57.7173039 C123.40902,56.2864216 124.568333,55.1266176 125.999216,55.1266176 C127.430098,55.1266176 128.589902,56.2864216 128.589902,57.7173039" id="Fill-34" fill="#003938"></path>
            <path d="M122.375784,64.2717647 L126.720392,64.2717647 L126.720392,68.6340196 L122.36598,68.6340196 L122.36598,83.0987255 L117.268431,83.0987255 L117.268431,68.6340196 L114.207647,68.6340196 L114.207647,64.2717647 L117.268431,64.2717647 L117.268431,60.0438235 L117.278235,60.0438235 C117.379216,57.3119608 119.619412,55.1266667 122.375784,55.1266667 L122.375784,64.2717647 Z" id="Fill-35" fill="#003938"></path>
            <path d="M229.886716,40.1236275 L225.978382,39.2206863 C224.712696,38.9005882 224.1975,38.434902 224.1975,37.6118627 C224.1975,36.2981373 225.550931,35.6996078 226.809265,35.6996078 C229.233775,35.6996078 229.769069,37.2295098 229.941127,37.8765686 L234.534755,37.0059804 L234.535735,37.0054902 C233.645539,33.6461765 230.94701,31.8711765 226.724461,31.8711765 C222.424951,31.8711765 219.265637,34.3907843 219.265637,37.9991176 C219.265637,40.8618627 220.913186,42.550098 224.114657,43.3123529 L227.936716,44.1721569 C229.135245,44.484902 229.931324,44.900098 229.931324,45.9103922 C229.931324,47.1613725 228.891618,47.9089216 227.149461,47.9089216 C225.198971,47.9089216 224.052892,46.8451961 223.758775,45.2613725 L218.928873,46.1765686 C219.658775,49.6608824 222.738676,51.7368627 227.191618,51.7368627 C231.743088,51.7368627 234.917598,49.2741176 234.917598,45.6089216 C234.917598,42.7334314 233.193578,40.9393137 229.886716,40.1236275" id="Fill-36" fill="#003938"></path>
            <path d="M193.978873,23.2446569 C192.54799,23.2446569 191.388186,24.4044608 191.388186,25.8353431 C191.388186,27.2662255 192.54799,28.4260294 193.978873,28.4260294 C195.409755,28.4260294 196.569559,27.2662255 196.569559,25.8353431 C196.569559,24.4044608 195.409755,23.2446569 193.978873,23.2446569" id="Fill-37" fill="#003938"></path>
            <path d="M244.433186,55.1265196 C243.002304,55.1265196 241.8425,56.2863235 241.8425,57.7172059 C241.8425,59.1480882 243.002304,60.3078922 244.433186,60.3078922 C245.864069,60.3078922 247.023873,59.1480882 247.023873,57.7172059 C247.023873,56.2863235 245.864069,55.1265196 244.433186,55.1265196" id="Fill-38" fill="#003938"></path>
        </g>
    </g>
</svg>