<?xml version="1.0" encoding="UTF-8"?>
<svg width="100px" height="100px" viewBox="0 0 100 100" version="1.1" xmlns="http://www.w3.org/2000/svg" xmlns:xlink="http://www.w3.org/1999/xlink">
    <!-- Generator: Sketch 50 (54983) - http://www.bohemiancoding.com/sketch -->
    <title>Group</title>
    <desc>Created with Sketch.</desc>
    <defs></defs>
    <g id="Page-1" stroke="none" stroke-width="1" fill="none" fill-rule="evenodd">
        <g id="Group">
            <path d="M0,50 C0,22.3858262 22.3858262,0 50,0 C77.6141738,0 100,22.3858262 100,50 C100,77.6141738 77.6141738,100 50,100 C22.3858262,100 0,77.6141738 0,50" id="Fill-1" fill="#74D2D2"></path>
            <path d="M50.4632353,31.8460784 C50.4632353,31.8460784 55.6789216,23 65.3009804,23 C74.922549,23 82.9259804,30.4637255 82.9259804,42.0642157 C82.9259804,55.4313725 69.8583333,67.9504902 51.1259804,83.3779412 C50.7426471,83.6936275 50.1838235,83.6936275 49.8,83.3779412 C31.0676471,67.9504902 18,55.4313725 18,42.0642157 C18,30.4637255 26.0039216,23 35.6254902,23 C45.247549,23 50.4632353,31.8460784 50.4632353,31.8460784" id="Fill-3" fill="#DF2027"></path>
        </g>
    </g>
</svg>