<?xml version="1.0" encoding="UTF-8"?>
<svg width="288px" height="103px" viewBox="0 0 288 103" version="1.1" xmlns="http://www.w3.org/2000/svg" xmlns:xlink="http://www.w3.org/1999/xlink">
    <!-- Generator: Sketch 50 (54983) - http://www.bohemiancoding.com/sketch -->
    <title>Foodies Foundation Logo H Copy 2</title>
    <desc>Created with Sketch.</desc>
    <defs></defs>
    <g id="Page-1" stroke="none" stroke-width="1" fill="none" fill-rule="evenodd">
        <g id="logo/h/w">
            <path d="M4.89795918e-05,50 C4.89795918e-05,22.3858262 22.367601,0 49.9592327,0 C77.5508643,0 99.9184163,22.3858262 99.9184163,50 C99.9184163,77.6141738 77.5508643,100 49.9592327,100 C22.367601,100 4.89795918e-05,77.6141738 4.89795918e-05,50" id="Fill-1" fill="#74D2D2"></path>
            <path d="M49.9594776,31.8379412 C49.9594776,31.8379412 55.1709061,22.9918627 64.7851102,22.9918627 C74.3988245,22.9918627 82.3957224,30.4555882 82.3957224,42.0560784 C82.3957224,55.4232353 69.3387429,67.9423529 50.6216816,83.3698039 C50.2386612,83.6854902 49.6802939,83.6854902 49.2967837,83.3698039 C30.5797224,67.9423529 17.5227429,55.4232353 17.5227429,42.0560784 C17.5227429,30.4555882 25.5201306,22.9918627 35.1338449,22.9918627 C44.748049,22.9918627 49.9594776,31.8379412 49.9594776,31.8379412" id="Fill-3" fill="#DF2027"></path>
            <polygon id="Fill-5" fill="#2EC4C4" points="117.163102 99.7855882 119.518041 99.7855882 119.518041 89.4478431 117.163102 89.4478431"></polygon>
            <path d="M120.934678,92.2237255 L123.029045,92.2237255 L123.029045,93.4237255 C123.404718,92.6717647 124.228555,92.0501961 125.485371,92.0501961 C126.972882,92.0501961 128.027412,92.9467647 128.027412,94.9707843 L128.027412,99.7854902 L125.933045,99.7854902 L125.933045,95.2747059 C125.933045,94.2477451 125.528473,93.7560784 124.603739,93.7560784 C123.707902,93.7560784 123.029045,94.3055882 123.029045,95.4193137 L123.029045,99.7854902 L120.934678,99.7854902 L120.934678,92.2237255 Z" id="Fill-7" fill="#2EC4C4"></path>
            <path d="M132.508408,99.7855882 L134.588571,99.7855882 L134.588571,92.2238235 L132.508408,92.2238235 L132.508408,99.7855882 Z M132.349224,90.0547059 C132.349224,89.4042157 132.869878,88.912549 133.534041,88.912549 C134.213388,88.912549 134.733061,89.4042157 134.733061,90.0547059 C134.733061,90.7051961 134.213388,91.1968627 133.534041,91.1968627 C132.869878,91.1968627 132.349224,90.7051961 132.349224,90.0547059 Z" id="Fill-8" fill="#2EC4C4"></path>
            <path d="M136.312555,97.5445588 L136.312555,93.7131863 L135.344718,93.7131863 L135.344718,92.2239706 L136.312555,92.2239706 L136.312555,90.5896569 L138.393208,90.5896569 L138.393208,92.2239706 L139.982106,92.2239706 L139.982106,93.7131863 L138.393208,93.7131863 L138.393208,97.3563235 C138.393208,97.9631863 138.696392,98.252402 139.231249,98.252402 C139.548637,98.252402 139.77982,98.2092647 140.025208,98.1077941 L140.025208,99.727402 C139.736229,99.8288725 139.317453,99.9298529 138.754188,99.9298529 C137.1648,99.9298529 136.312555,99.1205392 136.312555,97.5445588" id="Fill-9" fill="#2EC4C4"></path>
            <path d="M144.389878,97.5445588 L144.389878,93.7131863 L143.422041,93.7131863 L143.422041,92.2239706 L144.389878,92.2239706 L144.389878,90.5896569 L146.470041,90.5896569 L146.470041,92.2239706 L148.058939,92.2239706 L148.058939,93.7131863 L146.470041,93.7131863 L146.470041,97.3563235 C146.470041,97.9631863 146.773224,98.252402 147.308082,98.252402 C147.625469,98.252402 147.857143,98.2092647 148.102531,98.1077941 L148.102531,99.727402 C147.813551,99.8288725 147.394776,99.9298529 146.83151,99.9298529 C145.242122,99.9298529 144.389878,99.1205392 144.389878,97.5445588" id="Fill-10" fill="#2EC4C4"></path>
            <path d="M154.312555,96.0552941 L154.312555,95.9538235 C154.312555,94.5082353 153.633698,93.6405882 152.463576,93.6405882 C151.307657,93.6405882 150.614106,94.4788235 150.614106,95.924902 L150.614106,96.0405882 C150.614106,97.4866667 151.279249,98.3538235 152.463576,98.3538235 C153.633698,98.3538235 154.312555,97.4866667 154.312555,96.0552941 M148.476147,96.0842157 L148.476147,95.9680392 C148.476147,93.5969608 150.195331,92.049902 152.463576,92.049902 C154.731331,92.049902 156.43631,93.5685294 156.43631,95.924902 L156.43631,96.0405882 C156.43631,98.4263725 154.717127,99.9445098 152.448882,99.9445098 C150.195331,99.9445098 148.476147,98.4405882 148.476147,96.0842157" id="Fill-11" fill="#2EC4C4"></path>
            <path d="M162.795967,95.8092647 L162.795967,95.7082843 C162.795967,94.4215196 162.11662,93.6406373 160.975396,93.6406373 C159.805763,93.6406373 159.155314,94.4788725 159.155314,95.7225 L159.155314,95.8386765 C159.155314,97.0960294 159.892457,97.8769118 160.932294,97.8769118 C162.030906,97.8769118 162.795967,97.0960294 162.795967,95.8092647 M157.075151,99.9445588 L159.155314,99.9445588 C159.2856,100.609755 159.762661,101.043578 160.830906,101.043578 C162.102416,101.043578 162.738661,100.377892 162.738661,99.192598 L162.738661,98.0504412 C162.319396,98.7876961 161.423559,99.4528922 160.311722,99.4528922 C158.476947,99.4528922 157.017355,98.0793627 157.017355,95.8386765 L157.017355,95.7372059 C157.017355,93.5685784 158.462253,92.049951 160.340131,92.049951 C161.568049,92.049951 162.305192,92.5852451 162.738661,93.3514216 L162.738661,92.2239706 L164.818335,92.2239706 L164.818335,99.192598 C164.804131,101.433775 163.316131,102.575931 160.830906,102.575931 C158.389763,102.575931 157.276947,101.505833 157.075151,99.9445588" id="Fill-12" fill="#2EC4C4"></path>
            <path d="M171.148359,95.187402 C171.075869,94.0452451 170.49791,93.4962255 169.501176,93.4962255 C168.562237,93.4962255 167.926482,94.1173039 167.767788,95.187402 L171.148359,95.187402 Z M165.615135,96.0981863 L165.615135,95.9829902 C165.615135,93.5972059 167.30542,92.0501471 169.501176,92.0501471 C171.451543,92.0501471 173.184931,93.1923039 173.184931,95.8957353 L173.184931,96.4741667 L167.73889,96.4741667 C167.796196,97.7320098 168.475543,98.455049 169.616767,98.455049 C170.585094,98.455049 171.061176,98.0359314 171.191461,97.3996569 L173.170727,97.3996569 C172.924849,99.0334804 171.624931,99.9442647 169.558971,99.9442647 C167.276522,99.9442647 165.615135,98.5128922 165.615135,96.0981863 Z" id="Fill-13" fill="#2EC4C4"></path>
            <path d="M174.42338,97.5445588 L174.42338,93.7131863 L173.455543,93.7131863 L173.455543,92.2239706 L174.42338,92.2239706 L174.42338,90.5896569 L176.503543,90.5896569 L176.503543,92.2239706 L178.092441,92.2239706 L178.092441,93.7131863 L176.503543,93.7131863 L176.503543,97.3563235 C176.503543,97.9631863 176.806727,98.252402 177.341584,98.252402 C177.658971,98.252402 177.890645,98.2092647 178.136033,98.1077941 L178.136033,99.727402 C177.847053,99.8288725 177.428278,99.9298529 176.865012,99.9298529 C175.275624,99.9298529 174.42338,99.1205392 174.42338,97.5445588" id="Fill-14" fill="#2EC4C4"></path>
            <path d="M178.902808,88.7971569 L180.997665,88.7971569 L180.997665,93.4236275 C181.372849,92.6716667 182.196686,92.050098 183.453502,92.050098 C184.941502,92.050098 185.996033,92.9466667 185.996033,94.9706863 L185.996033,99.7853922 L183.901176,99.7853922 L183.901176,95.2746078 C183.901176,94.2476471 183.496604,93.7559804 182.572359,93.7559804 C181.676522,93.7559804 180.997665,94.3054902 180.997665,95.4192157 L180.997665,99.7853922 L178.902808,99.7853922 L178.902808,88.7971569 Z" id="Fill-15" fill="#2EC4C4"></path>
            <path d="M192.267918,95.187402 C192.195429,94.0452451 191.617469,93.4962255 190.620735,93.4962255 C189.681796,93.4962255 189.046041,94.1173039 188.887347,95.187402 L192.267918,95.187402 Z M186.734694,96.0981863 L186.734694,95.9829902 C186.734694,93.5972059 188.42498,92.0501471 190.620735,92.0501471 C192.571102,92.0501471 194.30449,93.1923039 194.30449,95.8957353 L194.30449,96.4741667 L188.858449,96.4741667 C188.915755,97.7320098 189.595102,98.455049 190.736327,98.455049 C191.704653,98.455049 192.180735,98.0359314 192.31102,97.3996569 L194.290286,97.3996569 C194.044408,99.0334804 192.74449,99.9442647 190.678531,99.9442647 C188.396082,99.9442647 186.734694,98.5128922 186.734694,96.0981863 Z" id="Fill-16" fill="#2EC4C4"></path>
            <path d="M195.129698,92.2237255 L197.224065,92.2237255 L197.224065,93.6693137 C197.701127,92.657549 198.438269,92.1222549 199.666188,92.1080392 L199.666188,94.06 C198.119902,94.0452941 197.224065,94.5511765 197.224065,95.9972549 L197.224065,99.7854902 L195.129698,99.7854902 L195.129698,92.2237255 Z" id="Fill-17" fill="#2EC4C4"></path>
            <path d="M203.6016,39.8835784 L212.38511,39.8835784 C211.994743,37.9301471 210.433273,36.367402 208.091069,36.367402 C205.748376,36.367402 204.186906,37.9301471 203.6016,39.8835784 Z M203.6016,43.5953431 C203.991967,45.5492647 205.748376,47.307598 208.676376,47.307598 C211.994743,47.307598 213.751641,44.9625 213.751641,44.9625 L216.484702,48.4791667 C216.484702,48.4791667 213.556702,51.8007353 208.286008,51.8007353 C202.625437,51.8007353 198.295641,47.307598 198.295641,41.8370098 C198.295641,36.367402 202.625437,31.8742647 208.091069,31.8742647 C213.556702,31.8742647 217.655804,35.9762255 217.655804,41.4463235 C217.655804,42.8144608 217.460376,43.5953431 217.460376,43.5953431 L203.6016,43.5953431 Z" id="Fill-18" fill="#FFFFFF"></path>
            <path d="M160.694743,81.1684804 C160.694743,81.1684804 158.775722,83.4733824 155.321682,83.4733824 C151.10062,83.4733824 148.03058,80.4008333 148.03058,75.522402 L148.03058,64.2684804 L153.211641,64.2684804 L153.211641,75.0233824 C153.211641,77.1356373 154.746171,78.6719118 156.857192,78.6719118 C159.159722,78.6719118 160.694743,77.1356373 160.694743,74.2547549 L160.694743,64.2684804 L165.875804,64.2684804 L165.875804,83.0890686 L160.694743,83.0890686 L160.694743,81.1684804 Z" id="Fill-19" fill="#FFFFFF"></path>
            <path d="M173.080261,66.5736765 C173.080261,66.5736765 174.999282,63.8854412 178.453322,63.8854412 C182.674873,63.8854412 185.744424,66.9575 185.744424,72.1423039 L185.744424,83.0888725 L180.563853,83.0888725 L180.563853,72.7192647 C180.563853,70.4138725 179.028833,68.8780882 176.918302,68.8780882 C174.615282,68.8780882 173.080261,70.4138725 173.080261,73.2947549 L173.080261,83.0888725 L167.89969,83.0888725 L167.89969,64.2687745 L173.080261,64.2687745 L173.080261,66.5736765 Z" id="Fill-20" fill="#FFFFFF"></path>
            <path d="M274.594286,66.5736765 C274.594286,66.5736765 276.513306,63.8854412 279.967347,63.8854412 C284.188898,63.8854412 287.258449,66.9575 287.258449,72.1423039 L287.258449,83.0888725 L282.077878,83.0888725 L282.077878,72.7192647 C282.077878,70.4138725 280.542857,68.8780882 278.431837,68.8780882 C276.129306,68.8780882 274.594286,70.4138725 274.594286,73.2947549 L274.594286,83.0888725 L269.413714,83.0888725 L269.413714,64.2687745 L274.594286,64.2687745 L274.594286,66.5736765 Z" id="Fill-21" fill="#FFFFFF"></path>
            <path d="M220.226449,75.009902 L220.226449,74.4319608 L215.991673,75.2030392 C214.644735,75.4339216 213.874286,76.1657843 213.874286,77.3221569 C213.874286,78.477549 214.644735,79.2481373 216.377143,79.2481373 C218.686531,79.2481373 220.226449,77.7069608 220.226449,75.009902 Z M220.226449,81.1746078 C220.226449,81.1746078 218.301551,83.4868627 215.029714,83.4868627 C211.179429,83.4868627 208.887673,80.9819608 208.887673,78.0927451 C208.887673,75.009902 210.794449,72.8520588 214.259265,72.2358824 L220.226449,71.157451 C220.226449,69.6157843 219.072,68.4603922 216.954122,68.4603922 C214.066776,68.4603922 212.719347,70.3858824 212.719347,70.3858824 L209.832,67.4971569 C209.832,67.4971569 212.334367,63.8363725 217.339102,63.8363725 C222.151837,63.8363725 225.423673,67.1113725 225.423673,71.3496078 L225.423673,83.1015686 L220.226449,83.1015686 L220.226449,81.1746078 Z" id="Fill-22" fill="#FFFFFF"></path>
            <path d="M230.442367,58.5533824 L235.171347,58.5533824 L235.171347,64.2715196 L239.112245,64.2715196 L239.112245,69.0043627 L235.171347,69.0043627 L235.171347,76.6136765 C235.171347,77.7970098 236.156816,78.7832843 237.536082,78.7832843 C238.717959,78.7832843 239.506531,78.3881863 239.506531,78.3881863 L239.506531,82.9239706 C239.506531,82.9239706 237.929878,83.5161275 235.959918,83.5161275 C232.01902,83.5161275 229.851673,81.3465196 229.851673,76.8107353 L229.851673,69.0043627 L226.501469,69.0043627 L226.501469,64.2715196 L228.27502,64.2715196 C229.457388,64.2715196 230.442367,63.2852451 230.442367,61.7082843 L230.442367,58.5533824 Z" id="Fill-23" fill="#FFFFFF"></path>
            <path d="M178.646449,47.1020098 C175.742939,47.1020098 173.389469,44.7461275 173.389469,41.8402451 C173.389469,38.9343627 175.742939,36.5784804 178.646449,36.5784804 C181.550449,36.5784804 183.903918,38.9343627 183.903918,41.8402451 C183.903918,44.7461275 181.550449,47.1020098 178.646449,47.1020098 Z M183.906367,23.5897549 L183.906367,33.4863235 C182.383592,32.5240686 180.580653,31.9647549 178.646449,31.9647549 C173.19698,31.9647549 168.77902,36.3863235 168.77902,41.8402451 C168.77902,47.2941667 173.19698,51.7157353 178.646449,51.7157353 C180.580653,51.7157353 182.383592,51.1564216 183.906367,50.1941667 L183.906367,51.2230882 L188.898367,51.2230882 L188.898367,23.5897549 L183.906367,23.5897549 Z" id="Fill-24" fill="#FFFFFF"></path>
            <path d="M157.198727,47.1075 C154.294727,47.1075 151.941257,44.7516176 151.941257,41.8457353 C151.941257,38.9398529 154.294727,36.5839706 157.198727,36.5839706 C160.102237,36.5839706 162.455706,38.9398529 162.455706,41.8457353 C162.455706,44.7516176 160.102237,47.1075 157.198727,47.1075 M157.427951,31.8923039 C151.93489,31.8923039 147.481665,36.3491667 147.481665,41.8467157 C147.481665,47.3437745 151.93489,51.8006373 157.427951,51.8006373 C162.921012,51.8006373 167.373747,47.3437745 167.373747,41.8467157 C167.373747,36.3491667 162.921012,31.8923039 157.427951,31.8923039" id="Fill-25" fill="#FFFFFF"></path>
            <path d="M136.678971,47.1075 C133.775461,47.1075 131.421502,44.7516176 131.421502,41.8457353 C131.421502,38.9398529 133.775461,36.5839706 136.678971,36.5839706 C139.582971,36.5839706 141.936441,38.9398529 141.936441,41.8457353 C141.936441,44.7516176 139.582971,47.1075 136.678971,47.1075 M136.678971,31.8923039 C131.18591,31.8923039 126.732686,36.3491667 126.732686,41.8467157 C126.732686,47.3437745 131.18591,51.8006373 136.678971,51.8006373 C142.172033,51.8006373 146.625257,47.3437745 146.625257,41.8467157 C146.625257,36.3491667 142.172033,31.8923039 136.678971,31.8923039" id="Fill-26" fill="#FFFFFF"></path>
            <path d="M128.484931,25.8351961 C128.484931,27.2660784 127.326073,28.4258824 125.896359,28.4258824 C124.466645,28.4258824 123.308278,27.2660784 123.308278,25.8351961 C123.308278,24.4043137 124.466645,23.2445098 125.896359,23.2445098 C127.326073,23.2445098 128.484931,24.4043137 128.484931,25.8351961" id="Fill-27" fill="#FFFFFF"></path>
            <polygon id="Fill-28" fill="#FFFFFF" points="191.16049 51.2002941 196.481143 51.2002941 196.481143 32.39 191.16049 32.39"></polygon>
            <polygon id="Fill-29" fill="#FFFFFF" points="241.573714 83.1208824 246.893878 83.1208824 246.893878 64.2713725 241.573714 64.2713725"></polygon>
            <path d="M122.275886,32.389902 L126.616947,32.389902 L126.616947,36.7521569 L122.26609,36.7521569 L122.26609,51.2168627 L117.172702,51.2168627 L117.172702,36.7521569 L114.114416,36.7521569 L114.114416,32.389902 L117.172702,32.389902 L117.172702,28.1619608 L117.182498,28.1619608 C117.283396,25.430098 119.521763,23.2443137 122.275886,23.2443137 L122.275886,32.389902 Z" id="Fill-30" fill="#FFFFFF"></path>
            <path d="M197.051559,78.9836765 C194.147559,78.9836765 191.79409,76.6277941 191.79409,73.722402 C191.79409,70.8160294 194.147559,68.4601471 197.051559,68.4601471 C199.955069,68.4601471 202.308539,70.8160294 202.308539,73.722402 C202.308539,76.6277941 199.955069,78.9836765 197.051559,78.9836765 Z M202.310988,55.4719118 L202.310988,65.3684804 C200.788212,64.4057353 198.985273,63.8464216 197.051559,63.8464216 C191.6016,63.8464216 187.184131,68.2684804 187.184131,73.722402 C187.184131,79.1763235 191.6016,83.597402 197.051559,83.597402 C198.985273,83.597402 200.788212,83.0380882 202.310988,82.0758333 L202.310988,83.1047549 L207.303478,83.1047549 L207.303478,55.4719118 L202.310988,55.4719118 Z" id="Fill-31" fill="#FFFFFF"></path>
            <path d="M136.678971,78.9894118 C133.775461,78.9894118 131.421502,76.6335294 131.421502,73.7276471 C131.421502,70.8217647 133.775461,68.4658824 136.678971,68.4658824 C139.582971,68.4658824 141.936441,70.8217647 141.936441,73.7276471 C141.936441,76.6335294 139.582971,78.9894118 136.678971,78.9894118 M136.678971,63.7742157 C131.18591,63.7742157 126.732686,68.2310784 126.732686,73.7286275 C126.732686,79.2256863 131.18591,83.682549 136.678971,83.682549 C142.172033,83.682549 146.625257,79.2256863 146.625257,73.7286275 C146.625257,68.2310784 142.172033,63.7742157 136.678971,63.7742157" id="Fill-32" fill="#FFFFFF"></path>
            <path d="M258.254988,78.9894118 C255.350988,78.9894118 252.997518,76.6335294 252.997518,73.7276471 C252.997518,70.8217647 255.350988,68.4658824 258.254988,68.4658824 C261.158988,68.4658824 263.512457,70.8217647 263.512457,73.7276471 C263.512457,76.6335294 261.158988,78.9894118 258.254988,78.9894118 M258.254988,63.7742157 C252.761927,63.7742157 248.308702,68.2310784 248.308702,73.7286275 C248.308702,79.2256863 252.761927,83.682549 258.254988,83.682549 C263.748049,83.682549 268.201273,79.2256863 268.201273,73.7286275 C268.201273,68.2310784 263.748049,63.7742157 258.254988,63.7742157" id="Fill-33" fill="#FFFFFF"></path>
            <path d="M128.484931,57.7171078 C128.484931,59.1475 127.326073,60.3077941 125.896359,60.3077941 C124.466645,60.3077941 123.308278,59.1475 123.308278,57.7171078 C123.308278,56.2862255 124.466645,55.1264216 125.896359,55.1264216 C127.326073,55.1264216 128.484931,56.2862255 128.484931,57.7171078" id="Fill-34" fill="#FFFFFF"></path>
            <path d="M122.275886,64.2715686 L126.616947,64.2715686 L126.616947,68.6338235 L122.26609,68.6338235 L122.26609,83.0985294 L117.172702,83.0985294 L117.172702,68.6338235 L114.114416,68.6338235 L114.114416,64.2715686 L117.172702,64.2715686 L117.172702,60.0436275 L117.182498,60.0436275 C117.283396,57.3117647 119.521763,55.1264706 122.275886,55.1264706 L122.275886,64.2715686 Z" id="Fill-35" fill="#FFFFFF"></path>
            <path d="M229.699053,40.1234314 L225.79391,39.2204902 C224.529257,38.9003922 224.014482,38.4347059 224.014482,37.6116667 C224.014482,36.2979412 225.366808,35.6994118 226.624114,35.6994118 C229.046645,35.6994118 229.581502,37.2293137 229.75342,37.8763725 L234.343298,37.0057843 L234.344278,37.0052941 C233.454808,33.6459804 230.758482,31.8709804 226.53938,31.8709804 C222.24338,31.8709804 219.086645,34.3905882 219.086645,37.9989216 C219.086645,40.8616667 220.732849,42.549902 223.931706,43.3121569 L227.750645,44.1719608 C228.948196,44.4847059 229.743624,44.899902 229.743624,45.9101961 C229.743624,47.1611765 228.704767,47.9087255 226.964033,47.9087255 C225.015135,47.9087255 223.869992,46.845 223.576114,45.2611765 L218.750155,46.1763725 C219.479461,49.6606863 222.556849,51.7366667 227.006155,51.7366667 C231.55391,51.7366667 234.725829,49.2739216 234.725829,45.6087255 C234.725829,42.7332353 233.003216,40.9391176 229.699053,40.1234314" id="Fill-36" fill="#FFFFFF"></path>
            <path d="M193.820522,23.2444608 C192.390808,23.2444608 191.231951,24.4042647 191.231951,25.8351471 C191.231951,27.2660294 192.390808,28.4258333 193.820522,28.4258333 C195.250237,28.4258333 196.409094,27.2660294 196.409094,25.8351471 C196.409094,24.4042647 195.250237,23.2444608 193.820522,23.2444608" id="Fill-37" fill="#FFFFFF"></path>
            <path d="M244.233649,55.1263235 C242.803935,55.1263235 241.645078,56.2861275 241.645078,57.7170098 C241.645078,59.1478922 242.803935,60.3076961 244.233649,60.3076961 C245.663363,60.3076961 246.82222,59.1478922 246.82222,57.7170098 C246.82222,56.2861275 245.663363,55.1263235 244.233649,55.1263235" id="Fill-38" fill="#FFFFFF"></path>
        </g>
    </g>
</svg>